<mxfile host="app.diagrams.net" modified="2023-03-26T19:37:32.673Z" agent="Mozilla/5.0 (Macintosh; Intel Mac OS X 10_15_7) AppleWebKit/605.1.15 (KHTML, like Gecko) Version/16.3.1 Safari/605.1.15" version="21.1.1" etag="jdK5E3tqAiniWbn7HctT" type="github">
  <diagram name="Page-1" id="2TfanLCk-4VenRv9Fiu4">
    <mxGraphModel>
      <root>
        <mxCell id="0" />
        <mxCell id="1" parent="0" />
      </root>
    </mxGraphModel>
  </diagram>
</mxfile>
